<?xml version="1.0" encoding="UTF-8" standalone="no"?>
<svg
   xmlns:dc="http://purl.org/dc/elements/1.1/"
   xmlns:cc="http://creativecommons.org/ns#"
   xmlns:rdf="http://www.w3.org/1999/02/22-rdf-syntax-ns#"
   xmlns:svg="http://www.w3.org/2000/svg"
   xmlns="http://www.w3.org/2000/svg"
   xmlns:sodipodi="http://sodipodi.sourceforge.net/DTD/sodipodi-0.dtd"
   xmlns:inkscape="http://www.inkscape.org/namespaces/inkscape"
   version="1.1"
   x="0px"
   y="0px"
   viewBox="0 0 70 70"
   enable-background="new 0 0 70 70"
   xml:space="preserve"
   id="svg18"
   sodipodi:docname="logo.svg"
   inkscape:version="1.0.1 (c497b03c, 2020-09-10)"
   width="70"
   height="70"><metadata
     id="metadata24"><rdf:RDF><cc:Work
         rdf:about=""><dc:format>image/svg+xml</dc:format><dc:type
           rdf:resource="http://purl.org/dc/dcmitype/StillImage" /><dc:title></dc:title></cc:Work></rdf:RDF></metadata><defs
     id="defs22" /><sodipodi:namedview
     pagecolor="#ffffff"
     bordercolor="#666666"
     borderopacity="1"
     objecttolerance="10"
     gridtolerance="10"
     guidetolerance="10"
     inkscape:pageopacity="0"
     inkscape:pageshadow="2"
     inkscape:window-width="1920"
     inkscape:window-height="1035"
     id="namedview20"
     showgrid="false"
     inkscape:zoom="8.4"
     inkscape:cx="71.97702"
     inkscape:cy="48.365248"
     inkscape:window-x="1920"
     inkscape:window-y="23"
     inkscape:window-maximized="0"
     inkscape:current-layer="svg18"
     inkscape:document-rotation="0"
     inkscape:pagecheckerboard="true" /><ellipse
     style="fill:#ffffff;fill-opacity:1;stroke:#ffffff;stroke-width:1.81268;stroke-miterlimit:4;stroke-dasharray:none;stroke-opacity:1"
     id="path917"
     cx="35.059517"
     cy="35.084141"
     rx="34.032597"
     ry="33.969471" /><g
     id="g12"
     style="fill:#6e5ab1;fill-opacity:1"
     transform="matrix(0.69896683,-0.17826463,0.16593426,0.66657001,4.8825122,15.605463)"><path
       d="m 50.445,17.8 c 1.334,-0.0613 3.2806,-0.0565 4.09,-0.04 1.4078,0.0439 1.9187,-1.8244 0.75,-2.53 -3.3044,-2.0914 -8.5578,-3.324 -15.24,-2.12 -0.38,0.06 -0.77,-0.04 -1.07,-0.28 -0.28,-0.24 -0.43,-0.58 -0.43,-0.95 V 5.04 C 38.545,3.91 37.625,3 36.505,3 h -3.01 c -1.12,0 -2.04,0.91 -2.04,2.03 v 6.85 c 0,0.37 -0.15,0.71 -0.44,0.95 -0.29,0.2401 -0.68,0.34 -1.06,0.28 -6.6541,-1.199 -11.9248,0.0258 -15.2401,2.11 -1.1708,0.7291 -0.6611,2.54 0.76,2.54 1.36,-0.03 2.72,-0.01 4.08,0.04 -8.5,4.67 -14.18,13.08 -14.18,22.66 0,14.63 13.29,26.54 29.62,26.54 16.34,0 29.63,-11.91 29.63,-26.54 C 64.625,30.88 58.945,22.47 50.445,17.8 Z m -34.54,-1.54 c 2.9293,-1.6858 7.3989,-2.668 13.01,-1.8 0.26,0.03 0.52,0.07 0.78,0.12 0.78,0.14 1.58,-0.06 2.2,-0.54 0.03,-0.02 0.06,-0.05 0.09,-0.07 0.62,-0.52 0.97,-1.28 0.97,-2.09 V 5.03 c 0,-0.29 0.24,-0.53 0.54,-0.53 h 3.01 c 0.29,0 0.54,0.24 0.54,0.54 v 6.84 c 0,0.81 0.35,1.5699 0.97,2.09 0.03,0.02 0.06,0.05 0.09,0.07 0.62,0.48 1.41,0.68 2.2,0.54 0.26,-0.05 0.52,-0.09 0.77,-0.12 5.6391,-0.8675 10.0997,0.1195 13.02,1.8 -3.1508,-0.0579 -6.6495,0.1267 -9.07,0.3799 -1.0569,0.1058 -1.3891,1.5743 -0.3799,2.09 2.7168,1.3304 4.4465,3.6121 5.81,6.23 -3.37,-1.6 -6.9901,-2.8 -10.76,-3.56 -0.9231,-0.1977 -1.641,0.7843 -1.21,1.56 1.5027,3.0053 -3.2572,10.2649 -3.49,10.85 -6.5003,-11.6536 -2.3182,-10.3502 -3.58,-12 -0.22,-0.28 -0.55,-0.44 -0.88,-0.44 -0.07,0 -0.15,0.01 -0.22,0.03 -3.78,0.76 -7.41,1.96 -10.77,3.56 3.719,-7.0432 6.7975,-5.4637 6.39,-7.42 -0.05,-0.29 -0.21,-0.53 -0.43,-0.68 -0.3305,-0.2864 -0.918,-0.3023 -3.14,-0.43 C 20.235,16.28 18.065,16.22 15.905,16.26 Z m 19.09,49.24 c -15.5,0 -28.12,-11.24 -28.12,-25.04 0,-9.87 6.44,-18.43 15.76,-22.51 0.31,0.02 0.62,0.04 0.93,0.07 -2.5221,1.5763 -4.1861,3.9544 -5.54,6.61 -0.5809,1.1842 0.6481,2.4143 1.82,1.85 3.14,-1.53 6.52,-2.69 10.05,-3.46 -0.8879,3.163 1.8374,8.0116 3.33,10.68 0.4276,0.5845 0.6239,1.75 1.77,1.75 1.1229,0 1.4102,-1.2533 1.8,-1.79 1.5399,-2.7414 4.1898,-7.4422 3.3,-10.64 9.3883,2.0421 10.1816,4.6386 11.63,3.19 0.42,-0.43 0.51,-1.05 0.24,-1.58 -1.3793,-2.7104 -2.9525,-4.9856 -5.53,-6.61 0.31,-0.03 0.62,-0.05 0.93,-0.07 9.32,4.08 15.76,12.64 15.76,22.51 0,13.8 -12.62,25.04 -28.13,25.04 z"
       id="path10"
       style="fill:#6e5ab1;fill-opacity:1" /></g></svg>
